<svg width="1275" height="221" viewBox="0 0 1275 221" fill="none" xmlns="http://www.w3.org/2000/svg">
<path d="M26.3789 218V94.7363H0.512695V62.1641H26.3789V57.2144C26.3789 47.8472 27.2837 39.7573 29.0933 32.9448C30.9028 26.0259 33.9897 20.3843 38.354 16.02C42.8247 11.6558 48.9453 8.40918 56.7158 6.28027C64.4863 4.15137 74.3325 3.08691 86.2544 3.08691H101.742V33.7432H87.6914C79.6016 33.7432 74.3857 35.606 72.0439 39.3315C69.8086 43.0571 68.6909 49.0181 68.6909 57.2144V62.1641H101.902V94.7363H68.6909V218H26.3789ZM119.395 218V62.1641H159.951L160.749 89.1479C164.794 79.7808 170.861 72.5957 178.951 67.5928C187.041 62.5898 196.834 60.0884 208.33 60.0884H211.523V95.6943H207.532C201.252 95.6943 195.237 96.2798 189.489 97.4507C183.741 98.5151 178.525 100.431 173.842 103.199C169.158 105.86 165.113 109.585 161.707 114.375V218H119.395ZM298.153 220.874C280.802 220.874 266.219 217.681 254.404 211.294C242.589 204.801 233.647 195.487 227.58 183.352C221.512 171.217 218.479 156.634 218.479 139.603C218.479 123.104 221.406 108.894 227.26 96.9717C233.221 85.0498 241.897 75.8955 253.286 69.5088C264.782 63.0156 278.886 59.769 295.598 59.769C318.803 59.769 337.112 66.5815 350.524 80.2065C364.043 93.7251 370.802 113.045 370.802 138.166C370.802 139.443 370.749 141.2 370.642 143.435C370.536 145.564 370.376 147.214 370.163 148.385H260.791C261.004 155.729 262.334 162.595 264.782 168.982C267.337 175.369 271.329 180.531 276.757 184.47C282.186 188.302 289.318 190.218 298.153 190.218C307.307 190.218 314.652 188.249 320.187 184.31C325.722 180.265 328.543 174.304 328.65 166.427H370.323C369.791 178.562 366.438 188.674 360.264 196.764C354.196 204.854 345.84 210.921 335.196 214.966C324.658 218.905 312.31 220.874 298.153 220.874ZM261.27 121.561H328.809C328.49 110.703 325.243 102.613 319.069 97.291C313.002 91.8623 305.178 89.1479 295.598 89.1479C285.805 89.1479 277.769 91.9155 271.488 97.4507C265.315 102.986 261.908 111.022 261.27 121.561ZM470.364 220.874C453.014 220.874 438.431 217.681 426.615 211.294C414.8 204.801 405.859 195.487 399.791 183.352C393.724 171.217 390.69 156.634 390.69 139.603C390.69 123.104 393.617 108.894 399.472 96.9717C405.433 85.0498 414.108 75.8955 425.498 69.5088C436.994 63.0156 451.098 59.769 467.81 59.769C491.015 59.769 509.323 66.5815 522.736 80.2065C536.254 93.7251 543.013 113.045 543.013 138.166C543.013 139.443 542.96 141.2 542.854 143.435C542.747 145.564 542.588 147.214 542.375 148.385H433.002C433.215 155.729 434.546 162.595 436.994 168.982C439.549 175.369 443.54 180.531 448.969 184.47C454.398 188.302 461.529 190.218 470.364 190.218C479.519 190.218 486.863 188.249 492.399 184.31C497.934 180.265 500.755 174.304 500.861 166.427H542.534C542.002 178.562 538.649 188.674 532.475 196.764C526.408 204.854 518.052 210.921 507.407 214.966C496.869 218.905 484.522 220.874 470.364 220.874ZM433.481 121.561H501.021C500.701 110.703 497.455 102.613 491.281 97.291C485.214 91.8623 477.39 89.1479 467.81 89.1479C458.017 89.1479 449.98 91.9155 443.7 97.4507C437.526 102.986 434.12 111.022 433.481 121.561ZM624.533 220.714C612.824 220.714 602.286 217.787 592.919 211.933C583.658 206.078 576.314 197.137 570.885 185.108C565.563 172.974 562.902 157.592 562.902 138.964C562.902 120.975 565.776 106.126 571.524 94.417C577.378 82.708 585.255 73.9795 595.155 68.2314C605.054 62.4834 616.177 59.6094 628.525 59.6094C639.383 59.6094 648.697 61.8447 656.467 66.3154C664.238 70.7861 670.411 76.6406 674.989 83.8789V3.08691H717.301V218H676.745L674.989 195.806C669.453 203.47 662.588 209.538 654.391 214.008C646.195 218.479 636.242 220.714 624.533 220.714ZM636.988 188.461C645.929 188.461 653.646 185.96 660.139 180.957C666.633 175.954 671.582 170.1 674.989 163.394V117.888C671.689 110.863 667.058 104.742 661.097 99.5264C655.136 94.3105 647.792 91.7026 639.063 91.7026C628.632 91.7026 620.542 95.7476 614.794 103.837C609.046 111.927 606.172 123.636 606.172 138.964C606.172 155.783 608.886 168.237 614.315 176.327C619.85 184.417 627.407 188.461 636.988 188.461ZM752.677 218V62.1641H793.232L794.031 89.1479C798.076 79.7808 804.143 72.5957 812.233 67.5928C820.323 62.5898 830.116 60.0884 841.612 60.0884H844.805V95.6943H840.813C834.533 95.6943 828.519 96.2798 822.771 97.4507C817.023 98.5151 811.807 100.431 807.123 103.199C802.44 105.86 798.395 109.585 794.989 114.375V218H752.677ZM863.576 218V62.1641H905.888V218H863.576ZM884.811 41.7266C877.041 41.7266 871.08 39.7573 866.929 35.8188C862.884 31.8804 860.861 26.9839 860.861 21.1294C860.861 15.1685 862.884 10.272 866.929 6.43994C871.08 2.50146 877.041 0.532227 884.811 0.532227C892.582 0.532227 898.49 2.50146 902.535 6.43994C906.686 10.272 908.762 15.1685 908.762 21.1294C908.762 26.9839 906.686 31.8804 902.535 35.8188C898.49 39.7573 892.582 41.7266 884.811 41.7266ZM941.583 218V62.1641H982.298L983.097 85.4756C988.312 78.7695 995.178 72.8618 1003.69 67.7524C1012.21 62.5366 1023.28 59.9287 1036.9 59.9287C1052.77 59.9287 1065.06 64.772 1073.79 74.4585C1082.52 84.0386 1086.88 98.0894 1086.88 116.611V218H1044.89V122.04C1044.89 116.398 1044.09 111.448 1042.49 107.19C1040.9 102.933 1038.34 99.6328 1034.83 97.291C1031.42 94.9492 1026.9 93.7783 1021.26 93.7783C1012.85 93.7783 1005.61 95.7476 999.542 99.686C993.581 103.625 988.366 108.415 983.895 114.056V218H941.583ZM1121.14 218V3.08691H1163.45V134.015L1224.28 62.1641H1270.27L1208.64 133.855L1274.74 218H1226.52L1163.45 135.771V218H1121.14Z" fill="white"/>
</svg>
